<svg xmlns="http://www.w3.org/2000/svg" viewBox="0 0 640 470" width="100%" style="max-width:640px">
  <defs>
    <marker id="arrowBlue" markerWidth="10" markerHeight="7" refX="10" refY="3.5" orient="auto">
      <polygon points="0,0 10,3.5 0,7" fill="#667eea"/>
    </marker>
    <marker id="arrowRed" markerWidth="10" markerHeight="7" refX="10" refY="3.5" orient="auto">
      <polygon points="0,0 10,3.5 0,7" fill="#f5576c"/>
    </marker>
    <marker id="arrowGold" markerWidth="10" markerHeight="7" refX="10" refY="3.5" orient="auto">
      <polygon points="0,0 10,3.5 0,7" fill="#ffd700"/>
    </marker>
  </defs>

  <rect width="640" height="470" fill="#1a1a2e" rx="12"/>

  <g stroke="#ffffff" stroke-width="0.3" stroke-dasharray="3,6" opacity="0.14">
    <line x1="150.0" y1="40.0" x2="150.0" y2="436"/>
    <line x1="210.0" y1="40.0" x2="210.0" y2="436"/>
    <line x1="270.0" y1="40.0" x2="270.0" y2="436"/>
    <line x1="330.0" y1="40.0" x2="330.0" y2="436"/>
    <line x1="390.0" y1="40.0" x2="390.0" y2="436"/>
    <line x1="90" y1="268.0" x2="402" y2="268.0"/>
    <line x1="90" y1="208.0" x2="402" y2="208.0"/>
    <line x1="90" y1="148.0" x2="402" y2="148.0"/>
    <line x1="90" y1="87.99999999999999" x2="402" y2="87.99999999999999"/>
    <line x1="90" y1="388.0" x2="402" y2="388.0"/>
  </g>

  <line x1="82" y1="328.0" x2="410" y2="328.0" stroke="#777" stroke-width="1.2"/>
  <polygon points="410,328.0 403,324.0 403,332.0" fill="#777"/>
  <text x="418" y="332.0" fill="#999" font-size="13" font-family="serif" font-style="italic">x₂</text>

  <line x1="90" y1="440" x2="90" y2="34.0" stroke="#777" stroke-width="1.2"/>
  <polygon points="90,34.0 85,42.0 95,42.0" fill="#777"/>
  <text x="80" y="30.0" fill="#999" font-size="13" font-family="serif" font-style="italic">x₃</text>

  <line x1="330.0" y1="208.0" x2="126.0" y2="256.0" stroke="#888888" stroke-width="1.2" stroke-dasharray="5,5" opacity="0.45"/>
  <circle cx="126.0" cy="256.0" r="2.5" fill="#888888" opacity="0.6"/>
  <text x="198" y="250" fill="#888888" font-size="11" font-family="sans-serif" opacity="0.7">斜边（更长）</text>

  <line x1="90.0" y1="328.0" x2="228.0" y2="52.0" stroke="#667eea" stroke-width="2.5" marker-end="url(#arrowBlue)"/>
  <text x="236.0" y="56.0" fill="#667eea" font-size="12" font-family="sans-serif" font-weight="bold">列空间 Col(A)</text>
  <text x="236.0" y="70.0" fill="#667eea" font-size="10" font-family="sans-serif" opacity="0.6">（过原点的直线）</text>

  <line x1="90.0" y1="328.0" x2="330.0" y2="208.0" stroke="#f5576c" stroke-width="2.5" marker-end="url(#arrowRed)"/>
  <text x="340.0" y="213.0" fill="#f5576c" font-size="14" font-family="serif" font-weight="bold" font-style="italic">b = (2, 1)</text>

  <line x1="186.0" y1="136.0" x2="330.0" y2="208.0" stroke="#ffd700" stroke-width="2.5" stroke-dasharray="8,5"/>
  <text x="262.0" y="192.0" fill="#ffd700" font-size="13" font-family="serif" font-weight="bold" font-style="italic">r = b − Aŵ</text>

  <polyline points="194.0,119.9 186.0,136.0 202.1,144.0" fill="none" stroke="#ffd700" stroke-width="2"/>

  <circle cx="186.0" cy="136.0" r="5" fill="#4facfe" stroke="#fff" stroke-width="1.5"/>
  <text x="138.0" y="128.0" fill="#4facfe" font-size="14" font-family="serif" font-weight="bold" font-style="italic">Aŵ = (0.8, 1.6)</text>

  <circle cx="90.0" cy="328.0" r="3.5" fill="#aaa"/>
  <text x="70.0" y="346.0" fill="#aaa" font-size="12" font-family="serif">O</text>
</svg>